<?xml version="1.0" encoding="UTF-8" standalone="no"?>
<!-- Generator: Adobe Illustrator 26.3.1, SVG Export Plug-In . SVG Version: 6.00 Build 0)  -->

<svg
   version="1.1"
   id="Layer_1"
   x="0px"
   y="0px"
   viewBox="0 0 1399.9999 700"
   xml:space="preserve"
   sodipodi:docname="BAZ_logo_design copy.svg"
   inkscape:version="1.3.2 (091e20e, 2023-11-25)"
   inkscape:export-filename="BAZ-TELIKO svg .png"
   inkscape:export-xdpi="200"
   inkscape:export-ydpi="200"
   width="1400"
   height="700"
   xmlns:inkscape="http://www.inkscape.org/namespaces/inkscape"
   xmlns:sodipodi="http://sodipodi.sourceforge.net/DTD/sodipodi-0.dtd"
   xmlns="http://www.w3.org/2000/svg"
   xmlns:svg="http://www.w3.org/2000/svg"><defs
   id="defs32" /><sodipodi:namedview
   id="namedview32"
   pagecolor="#ffffff"
   bordercolor="#000000"
   borderopacity="0.25"
   inkscape:showpageshadow="2"
   inkscape:pageopacity="0.0"
   inkscape:pagecheckerboard="0"
   inkscape:deskcolor="#d1d1d1"
   inkscape:zoom="0.35455254"
   inkscape:cx="626.14133"
   inkscape:cy="575.37312"
   inkscape:window-width="1456"
   inkscape:window-height="853"
   inkscape:window-x="56"
   inkscape:window-y="38"
   inkscape:window-maximized="0"
   inkscape:current-layer="Layer_1" />
<style
   type="text/css"
   id="style1">
	.st0{fill:#4D4D4F;}
	.st1{fill:#C7C8CA;}
</style>
<g
   id="g32"
   transform="matrix(4.0756914,0,0,4.8129697,-484.35517,-1549.1987)"
   inkscape:label="g32">
	<path
   class="st0"
   d="m 237.63,397.57 c 1.86,3.65 2.92,7.94 2.92,12.51 0,11.57 -6.08,20.81 -14.24,20.81 l -84.7,4.03 V 330.96 l 84.7,29.12 c 8.16,3.13 14.24,14.8 14.24,26.37 0.01,4.59 -1.06,8.37 -2.92,11.12 z m -69.13,-22.63 55.37,11.37 c 1.26,0.3 2.44,-1.04 2.44,-3.06 0,-2.02 -1.11,-3.95 -2.44,-4.32 L 168.5,363.54 Z m 57.82,32.48 c 0,-1.82 -1.11,-4.11 -2.73,-4.35 l -55.09,-8.19 v 13.36 l 55.16,2.84 c 1.48,0.16 2.66,-1.43 2.66,-3.66 z"
   id="path1" />
	<path
   class="st0"
   d="m 311.67,419.47 h -42.69 l -2.71,10.36 h -20.72 l 17.27,-65.34 h 55.1 l 17.27,65.34 h -20.81 z m -4.76,-18.21 -4.85,-18.76 H 278.5 l -4.85,18.76 z"
   id="path2" />
	<path
   class="st0"
   d="m 436.81,363.89 -46.59,43.24 46.59,0.76 v 27.04 l -95.49,-5.1 v -18.01 l 30.83,-33.35 -33.83,7.63 v -20.06 l 98.49,-29.19 z"
   id="path3" />
	<g
   id="g29"
   transform="translate(0.93838,4.1303493)"
   inkscape:label="g29">
		<path
   class="st0"
   d="m 159.39324,463.02 v -9.26 h 4.33 c 2.01,0 3.11,1.36 3.11,2.98 0,1.61 -1.11,2.98 -3.11,2.98 h -2.36 v 3.29 h -1.97 z m 5.43,-6.28 c 0,-0.78 -0.58,-1.25 -1.36,-1.25 h -2.1 v 2.5 h 2.1 c 0.78,0 1.36,-0.48 1.36,-1.25 z"
   id="path4" />
		<path
   class="st0"
   d="m 168.72,463.02 v -9.26 h 1.97 v 9.26 z"
   id="path5" />
		<path
   class="st0"
   d="m 180.56,463.02 v -9.26 h 1.97 v 7.52 h 3.91 v 1.73 h -5.88 z"
   id="path6" /><path
   class="st0"
   d="m 173.31,463.02 v -9.26 h 1.97 v 7.52 h 3.91 v 1.73 h -5.88 z"
   id="path6-7"
   style="fill:#4d4d4f" />
		<path
   class="st0"
   d="m 187.81,458.39 c 0,-2.79 2.04,-4.79 4.83,-4.79 2.8,0 4.84,2 4.84,4.79 0,2.79 -2.04,4.79 -4.84,4.79 -2.79,0 -4.83,-2 -4.83,-4.79 z m 7.64,0 c 0,-1.73 -1.11,-3.04 -2.82,-3.04 -1.71,0 -2.81,1.31 -2.81,3.04 0,1.72 1.1,3.04 2.81,3.04 1.71,0 2.82,-1.32 2.82,-3.04 z"
   id="path7" />
		<path
   class="st0"
   d="m 206.56,463.02 -1.62,-6.36 -1.61,6.36 h -2.1 l -2.65,-9.26 h 2.21 l 1.62,6.69 1.76,-6.69 h 1.54 l 1.75,6.69 1.61,-6.69 h 2.22 l -2.64,9.26 z"
   id="path8" />
		<path
   class="st0"
   d="m 212.28,461.71 1.07,-1.5 c 0.65,0.68 1.67,1.25 2.94,1.25 1.08,0 1.61,-0.5 1.61,-1.03 0,-1.64 -5.33,-0.51 -5.33,-4 0,-1.54 1.33,-2.82 3.51,-2.82 1.47,0 2.69,0.44 3.61,1.29 l -1.1,1.44 c -0.75,-0.69 -1.75,-1.01 -2.69,-1.01 -0.85,0 -1.32,0.37 -1.32,0.93 0,1.47 5.32,0.48 5.32,3.94 0,1.69 -1.21,2.97 -3.71,2.97 -1.78,0.01 -3.05,-0.58 -3.91,-1.46 z"
   id="path9" />
		<path
   class="st0"
   d="m 231.38,463.02 c -0.19,-0.18 -0.43,-0.42 -0.69,-0.69 -0.69,0.53 -1.54,0.86 -2.53,0.86 -1.69,0 -3.05,-0.89 -3.05,-2.68 0,-1.4 0.93,-2.14 1.99,-2.66 -0.36,-0.68 -0.61,-1.37 -0.61,-2 0,-1.25 1.11,-2.22 2.65,-2.22 1.3,0 2.43,0.72 2.43,1.96 0,1.41 -1.14,2.01 -2.28,2.54 0.28,0.37 0.57,0.72 0.81,1 0.26,0.33 0.53,0.64 0.78,0.94 0.39,-0.6 0.68,-1.25 0.85,-1.79 l 1.42,0.65 c -0.33,0.74 -0.76,1.53 -1.29,2.24 0.56,0.6 1.14,1.21 1.79,1.86 h -2.27 z m -1.64,-1.7 c -0.42,-0.46 -0.8,-0.9 -1.03,-1.18 -0.31,-0.37 -0.62,-0.79 -0.93,-1.22 -0.48,0.35 -0.8,0.78 -0.8,1.42 0,0.9 0.67,1.46 1.43,1.46 0.47,0 0.93,-0.19 1.33,-0.48 z m -1.09,-4.19 c 0.78,-0.37 1.39,-0.78 1.39,-1.46 0,-0.48 -0.36,-0.78 -0.82,-0.78 -0.54,0 -0.97,0.42 -0.97,0.99 -0.01,0.38 0.16,0.81 0.4,1.25 z"
   id="path10" />
		<path
   class="st0"
   d="m 239.12,463.02 v -9.26 h 6.55 v 1.73 h -4.58 v 1.96 h 4.48 v 1.74 h -4.48 v 3.83 z"
   id="path11" />
		<path
   class="st0"
   d="m 253.78,463.02 -0.57,-1.57 h -3.97 l -0.58,1.57 h -2.25 l 3.58,-9.26 h 2.47 l 3.57,9.26 z m -2.55,-7.29 -1.44,3.98 h 2.89 z"
   id="path12" />
		<path
   class="st0"
   d="m 257.7,463.02 v -9.26 h 4.87 c 1.76,0 2.66,1.12 2.66,2.36 0,1.17 -0.72,1.94 -1.6,2.12 0.99,0.15 1.78,1.11 1.78,2.28 0,1.39 -0.93,2.5 -2.69,2.5 z m 5.52,-6.55 c 0,-0.58 -0.42,-1.01 -1.08,-1.01 h -2.47 v 2.01 h 2.47 c 0.67,-0.01 1.08,-0.42 1.08,-1 z m 0.18,3.77 c 0,-0.58 -0.42,-1.08 -1.19,-1.08 h -2.54 v 2.15 h 2.54 c 0.75,0 1.19,-0.4 1.19,-1.07 z"
   id="path13" />
		<path
   class="st0"
   d="m 272.99,463.02 -1.82,-3.29 h -1.44 v 3.29 h -1.97 v -9.26 h 4.33 c 1.93,0 3.11,1.26 3.11,2.98 0,1.64 -1.03,2.51 -2.03,2.75 l 2.08,3.53 z m 0.19,-6.28 c 0,-0.78 -0.6,-1.25 -1.39,-1.25 h -2.07 v 2.5 h 2.07 c 0.8,0 1.39,-0.47 1.39,-1.25 z"
   id="path14" />
		<path
   class="st0"
   d="m 277.49,463.02 v -9.26 h 1.97 v 9.26 z"
   id="path15" />
		<path
   class="st0"
   d="m 281.66,458.39 c 0,-2.85 2.15,-4.79 4.93,-4.79 2.04,0 3.22,1.11 3.87,2.26 l -1.69,0.83 c -0.39,-0.75 -1.22,-1.35 -2.18,-1.35 -1.68,0 -2.9,1.29 -2.9,3.04 0,1.75 1.22,3.04 2.9,3.04 0.96,0 1.79,-0.58 2.18,-1.35 l 1.69,0.82 c -0.67,1.15 -1.83,2.28 -3.87,2.28 -2.78,0.01 -4.93,-1.93 -4.93,-4.78 z"
   id="path16" />
		<path
   class="st0"
   d="m 295.66,458.39 c 0,-2.85 2.15,-4.79 4.93,-4.79 2.04,0 3.22,1.11 3.87,2.26 l -1.69,0.83 c -0.39,-0.75 -1.22,-1.35 -2.18,-1.35 -1.68,0 -2.9,1.29 -2.9,3.04 0,1.75 1.22,3.04 2.9,3.04 0.96,0 1.79,-0.58 2.18,-1.35 l 1.69,0.82 c -0.67,1.15 -1.83,2.28 -3.87,2.28 -2.78,0.01 -4.93,-1.93 -4.93,-4.78 z"
   id="path17" />
		<path
   class="st0"
   d="m 305.75,458.39 c 0,-2.79 2.04,-4.79 4.83,-4.79 2.8,0 4.84,2 4.84,4.79 0,2.79 -2.04,4.79 -4.84,4.79 -2.78,0 -4.83,-2 -4.83,-4.79 z m 7.65,0 c 0,-1.73 -1.11,-3.04 -2.82,-3.04 -1.71,0 -2.81,1.31 -2.81,3.04 0,1.72 1.1,3.04 2.81,3.04 1.71,0 2.82,-1.32 2.82,-3.04 z"
   id="path18" />
		<path
   class="st0"
   d="m 323.95,463.02 -4.41,-6.04 v 6.04 h -1.97 v -9.26 h 2.03 l 4.29,5.82 v -5.82 h 1.97 v 9.26 z"
   id="path19" />
		<path
   class="st0"
   d="m 327.83,461.71 1.07,-1.5 c 0.65,0.68 1.67,1.25 2.94,1.25 1.08,0 1.61,-0.5 1.61,-1.03 0,-1.64 -5.33,-0.51 -5.33,-4 0,-1.54 1.33,-2.82 3.51,-2.82 1.47,0 2.69,0.44 3.61,1.29 l -1.1,1.44 c -0.75,-0.69 -1.75,-1.01 -2.69,-1.01 -0.85,0 -1.32,0.37 -1.32,0.93 0,1.47 5.32,0.48 5.32,3.94 0,1.69 -1.21,2.97 -3.71,2.97 -1.78,0.01 -3.05,-0.58 -3.91,-1.46 z"
   id="path20" />
		<path
   class="st0"
   d="m 339.6,463.02 v -7.52 h -2.71 v -1.73 h 7.39 v 1.73 h -2.69 v 7.52 z"
   id="path21" />
		<path
   class="st0"
   d="m 351.32,463.02 -1.82,-3.29 h -1.44 v 3.29 h -1.97 v -9.26 h 4.33 c 1.93,0 3.11,1.26 3.11,2.98 0,1.64 -1.03,2.51 -2.03,2.75 l 2.08,3.53 z m 0.2,-6.28 c 0,-0.78 -0.6,-1.25 -1.39,-1.25 h -2.07 v 2.5 h 2.07 c 0.79,0 1.39,-0.47 1.39,-1.25 z"
   id="path22" />
		<path
   class="st0"
   d="m 355.65,459.32 v -5.57 h 2 v 5.5 c 0,1.29 0.75,2.18 2.18,2.18 1.43,0 2.16,-0.89 2.16,-2.18 v -5.5 H 364 v 5.55 c 0,2.3 -1.36,3.87 -4.18,3.87 -2.8,0.01 -4.17,-1.57 -4.17,-3.85 z"
   id="path23" />
		<path
   class="st0"
   d="m 366.08,458.39 c 0,-2.85 2.15,-4.79 4.93,-4.79 2.04,0 3.22,1.11 3.87,2.26 l -1.69,0.83 c -0.39,-0.75 -1.22,-1.35 -2.18,-1.35 -1.68,0 -2.9,1.29 -2.9,3.04 0,1.75 1.22,3.04 2.9,3.04 0.96,0 1.79,-0.58 2.18,-1.35 l 1.69,0.82 c -0.67,1.15 -1.83,2.28 -3.87,2.28 -2.78,0.01 -4.93,-1.93 -4.93,-4.78 z"
   id="path24" />
		<path
   class="st0"
   d="m 379.01,463.02 v -7.52 h -2.71 v -1.73 h 7.39 v 1.73 H 381 v 7.52 z"
   id="path25" />
		<path
   class="st0"
   d="m 385.5,463.02 v -9.26 h 1.97 v 9.26 z"
   id="path26" />
		<path
   class="st0"
   d="m 389.6,458.39 c 0,-2.79 2.04,-4.79 4.83,-4.79 2.8,0 4.84,2 4.84,4.79 0,2.79 -2.04,4.79 -4.84,4.79 -2.79,0 -4.83,-2 -4.83,-4.79 z m 7.65,0 c 0,-1.73 -1.11,-3.04 -2.82,-3.04 -1.71,0 -2.81,1.31 -2.81,3.04 0,1.72 1.1,3.04 2.81,3.04 1.71,0 2.82,-1.32 2.82,-3.04 z"
   id="path27" />
		<path
   class="st0"
   d="m 407.79,463.02 -4.41,-6.04 v 6.04 h -1.97 v -9.26 h 2.03 l 4.29,5.82 v -5.82 h 1.97 v 9.26 z"
   id="path28" />
		<path
   class="st0"
   d="m 411.67,461.71 1.07,-1.5 c 0.65,0.68 1.67,1.25 2.94,1.25 1.08,0 1.61,-0.5 1.61,-1.03 0,-1.64 -5.33,-0.51 -5.33,-4 0,-1.54 1.33,-2.82 3.51,-2.82 1.47,0 2.69,0.44 3.61,1.29 l -1.1,1.44 c -0.75,-0.69 -1.75,-1.01 -2.69,-1.01 -0.85,0 -1.32,0.37 -1.32,0.93 0,1.47 5.32,0.48 5.32,3.94 0,1.69 -1.21,2.97 -3.71,2.97 -1.78,0.01 -3.05,-0.58 -3.91,-1.46 z"
   id="path29" />
	</g>
	<path
   class="st1"
   d="M 118.84,441.14 V 321.88 l 0.74,0.25 96.04,33.02 c 9.28,3.56 16.52,16.93 16.52,30.44 0,5.01 -1.11,9.37 -3.23,12.63 2.11,4.26 3.23,9.14 3.23,14.15 0,13.55 -7.34,24.16 -16.71,24.16 z m 1.12,-117.68 v 116.5 l 95.45,-4.54 c 8.77,0 15.61,-10.12 15.61,-23.04 0,-4.94 -1.13,-9.76 -3.26,-13.93 l -0.15,-0.29 0.19,-0.27 c 2.11,-3.1 3.22,-7.35 3.22,-12.28 0,-13.08 -6.94,-25.99 -15.79,-29.38 z m 92.7,90.64 c -0.09,0 -0.19,0 -0.29,-0.02 l -63.05,-3.25 V 394.5 l 63.11,9.38 c 2.14,0.32 3.57,3.09 3.57,5.49 0,1.68 -0.54,3.13 -1.49,3.99 -0.54,0.48 -1.18,0.74 -1.85,0.74 z m -62.22,-4.34 62.02,3.2 c 0.49,0.05 0.92,-0.1 1.3,-0.44 0.7,-0.63 1.12,-1.81 1.12,-3.15 0,-1.85 -1.14,-4.16 -2.61,-4.38 l -61.83,-9.19 z m 62.63,-23.73 c -0.18,0 -0.35,-0.02 -0.53,-0.06 L 149.32,373 v -14.13 l 0.71,0.2 62.79,17.45 c 1.79,0.5 3.18,2.89 3.18,5.44 0,1.5 -0.54,2.83 -1.44,3.54 -0.45,0.35 -0.96,0.53 -1.49,0.53 z m -62.63,-13.95 62.34,12.79 c 0.48,0.11 0.85,-0.08 1.08,-0.26 0.63,-0.5 1.02,-1.5 1.02,-2.66 0,-2.01 -1.08,-4 -2.36,-4.36 l -62.08,-17.25 z"
   id="path30" />
	<path
   class="st1"
   d="M 341.83,435.83 H 317.07 L 314,424.08 h -47.54 l -3.07,11.75 h -24.66 l 0.19,-0.7 19.69,-74.5 h 63.35 l 0.11,0.42 z m -23.9,-1.12 h 22.44 l -19.28,-72.96 h -61.62 l -19.28,72.96 h 22.33 l 3.07,-11.75 h 49.27 z m -8.18,-31.27 h -39.17 l 5.79,-22.39 h 27.58 z m -37.71,-1.12 h 36.26 l -5.21,-20.15 h -25.84 z"
   id="path31" />
	<path
   class="st1"
   d="M 462.34,442.54 352.95,436.7 v -21.18 l 0.15,-0.16 33.73,-36.49 -37.28,8.41 v -23.86 l 0.4,-0.12 112.39,-33.3 v 31.66 l -0.18,0.17 -51.8,48.08 51.98,0.84 z m -108.27,-6.9 107.15,5.72 v -29.52 l -53.67,-0.87 1.02,-0.95 52.64,-48.86 V 331.5 l -110.55,32.76 v 21.62 l 39.43,-8.89 -36.03,38.97 v 19.68 z"
   id="path32" />
</g>
</svg>
