<?xml version="1.0" encoding="UTF-8" standalone="no"?>
<!-- Generator: Adobe Illustrator 26.3.1, SVG Export Plug-In . SVG Version: 6.00 Build 0)  -->

<svg
   version="1.1"
   id="Layer_1"
   x="0px"
   y="0px"
   viewBox="0 0 132.66001 132.66001"
   xml:space="preserve"
   sodipodi:docname="icon_1.svg"
   width="132.66"
   height="132.66"
   inkscape:version="1.3.2 (091e20e, 2023-11-25)"
   xmlns:inkscape="http://www.inkscape.org/namespaces/inkscape"
   xmlns:sodipodi="http://sodipodi.sourceforge.net/DTD/sodipodi-0.dtd"
   xmlns="http://www.w3.org/2000/svg"
   xmlns:svg="http://www.w3.org/2000/svg"><defs
   id="defs15" /><sodipodi:namedview
   id="namedview15"
   pagecolor="#ffffff"
   bordercolor="#000000"
   borderopacity="0.25"
   inkscape:showpageshadow="2"
   inkscape:pageopacity="0.0"
   inkscape:pagecheckerboard="0"
   inkscape:deskcolor="#d1d1d1"
   inkscape:zoom="0.83256899"
   inkscape:cx="66.060592"
   inkscape:cy="66.060592"
   inkscape:window-width="1312"
   inkscape:window-height="845"
   inkscape:window-x="0"
   inkscape:window-y="38"
   inkscape:window-maximized="0"
   inkscape:current-layer="Layer_1" />
<g
   id="g15"
   transform="translate(-75.4,-75.4)"
   style="fill:#2c3e50;fill-opacity:1">
	<path
   d="m 178.57,173.45 c 0,-1.79 -0.98,-2.79 -2.77,-2.84 -0.14,0 -0.29,-0.02 -0.53,-0.03 0,-0.34 0,-0.66 0,-0.97 0,-13.2 0,-26.4 0,-39.6 0,-3.02 -1.61,-5.24 -4.3,-5.89 -0.57,-0.14 -1.17,-0.17 -1.76,-0.17 -2.57,-0.02 -5.14,-0.01 -7.71,-0.01 -0.27,0 -0.53,0 -0.83,0 0,-0.77 0,-1.45 0,-2.16 1.64,-0.09 3.07,-0.62 4.18,-1.85 0.87,-0.97 1.42,-2.09 1.44,-3.4 0.03,-2.52 0.07,-5.04 0.01,-7.56 -0.07,-2.65 -1.71,-4.6 -4.28,-5.28 -0.12,-0.03 -0.22,-0.09 -0.34,-0.14 -14.04,0 -28.09,0 -42.13,0 -1.3,0.38 -2.49,0.93 -3.37,2.01 -0.89,1.1 -1.28,2.36 -1.27,3.78 0.02,2.15 0,4.3 0.01,6.45 0.01,3.35 1.87,5.48 5.18,5.95 0.15,0.02 0.29,0.04 0.46,0.06 0,0.69 0,1.37 0,2.14 -0.3,0 -0.57,0 -0.83,0 -2.6,0 -5.19,-0.01 -7.79,0 -3.63,0.01 -5.98,2.36 -5.98,6 -0.01,13.2 0,26.41 0,39.61 0,0.32 0,0.64 0,1.06 -1.62,-0.19 -2.7,0.49 -3.31,1.93 0,1.68 0,3.36 0,5.04 0.62,1.45 1.71,1.95 3.29,1.95 23.19,-0.03 46.37,-0.04 69.56,0.01 1.94,0 3.3,-1.24 3.12,-3.13 -0.12,-0.98 -0.05,-1.97 -0.05,-2.96 z m -61.33,-56.48 c -0.07,-0.28 -0.09,-0.58 -0.09,-0.88 -0.01,-2.27 -0.01,-4.55 0,-6.82 0.01,-2.03 1.4,-3.48 3.43,-3.48 13.35,-0.01 26.69,-0.01 40.04,0 2.03,0 3.43,1.45 3.43,3.48 0.01,2.22 0.01,4.45 0,6.67 0,2.2 -1.33,3.54 -3.56,3.55 -3.09,0.02 -6.18,0.01 -9.27,0.01 -4.35,0 -8.7,0 -13.05,0 -0.2,0 -0.4,0 -0.59,0 -0.85,0.02 -1.38,0.44 -1.4,1.11 -0.02,0.69 0.54,1.17 1.42,1.17 3.98,0.01 7.96,0 11.94,0 1.43,0 2.87,0 4.38,0 0,0.74 0,1.4 0,2.11 -8.88,0 -17.73,0 -26.63,0 0,-0.67 0,-1.33 0,-2.11 0.71,0 1.44,0 2.17,0 0.82,0 1.63,0.01 2.45,0 0.85,-0.02 1.34,-0.47 1.31,-1.18 -0.02,-0.68 -0.48,-1.09 -1.32,-1.09 -3.71,-0.01 -7.42,0 -11.12,-0.01 -1.89,-0.01 -3.12,-0.9 -3.54,-2.53 z m 41.11,4.87 c 0,0.67 0,1.34 0,2.07 -0.75,0 -1.43,0 -2.14,0 0,-0.7 0,-1.35 0,-2.07 0.7,0 1.39,0 2.14,0 z m -33.37,-0.01 c 0,0.7 0,1.37 0,2.08 -0.72,0 -1.4,0 -2.16,0 0,-0.73 0,-1.38 0,-2.08 0.73,0 1.42,0 2.16,0 z m -13.01,4.37 c 19.09,0.05 38.17,0.05 57.26,0 2.19,-0.01 3.79,1.49 3.78,3.75 -0.05,13.28 -0.03,26.55 -0.03,39.83 0,0.24 0,0.49 0,0.8 -7.58,0 -15.04,0 -22.61,0 0,-0.28 0,-0.54 0,-0.79 0,-1.63 0.01,-3.26 0,-4.9 0,-0.91 -0.43,-1.41 -1.17,-1.39 -0.7,0.02 -1.08,0.48 -1.09,1.39 -0.01,1.61 0,3.21 0,4.82 0,0.27 0,0.53 0,0.85 -2.13,0 -4.19,0 -6.31,0 0,-6.25 0,-12.48 0,-18.79 1.97,0 3.92,-0.02 5.86,0.03 0.15,0 0.42,0.48 0.43,0.74 0.04,2.05 0.02,4.1 0.02,6.16 0,0.22 -0.01,0.45 0.01,0.67 0.06,0.72 0.47,1.15 1.1,1.16 0.65,0.01 1.1,-0.45 1.16,-1.19 0.01,-0.1 0,-0.2 0,-0.3 0,-2.23 0.01,-4.45 0,-6.68 -0.01,-1.76 -1.04,-2.84 -2.8,-2.85 -4.65,-0.02 -9.3,-0.02 -13.94,0 -1.76,0.01 -2.8,1.09 -2.8,2.85 -0.01,5.76 0,11.52 0,17.28 0,0.29 0,0.58 0,0.92 -7.54,0 -15.02,0 -22.58,0 -0.01,-0.26 -0.04,-0.53 -0.04,-0.79 0,-13.28 0.03,-26.55 -0.03,-39.83 -0.01,-2.23 1.57,-3.74 3.78,-3.74 z m 27.44,25.56 c 0,6.3 0,12.52 0,18.79 -2.07,0 -4.13,0 -6.28,0 -0.01,-0.24 -0.04,-0.5 -0.04,-0.76 0,-5.68 0,-11.36 0,-17.05 0,-0.99 0,-0.99 0.97,-0.99 1.78,0.01 3.55,0.01 5.35,0.01 z m 36.17,25.54 c -1.66,-0.02 -3.31,-0.01 -4.97,-0.01 -10.03,0 -20.07,0 -30.1,0 -11.52,0 -23.04,0 -34.55,0 -1.12,0 -1.12,0 -1.12,-1.1 0,-0.89 0.02,-1.78 -0.01,-2.67 -0.01,-0.51 0.19,-0.74 0.7,-0.69 0.15,0.01 0.3,0 0.44,0 23.09,0 46.17,0 69.26,0 1.12,0 1.12,0 1.12,1.09 0,0.87 -0.02,1.73 0.01,2.59 0.02,0.58 -0.19,0.8 -0.78,0.79 z"
   id="path1"
   style="fill:#2c3e50;fill-opacity:1" />
	<path
   d="m 112.71,147.31 c 4.08,0.01 8.16,0.01 12.23,0 1.41,0 2.3,-0.91 2.3,-2.33 0.01,-2.37 0,-4.74 0,-7.12 0,-2.27 0,-4.55 0,-6.82 0,-1.85 -0.76,-2.63 -2.59,-2.64 -3.88,-0.01 -7.76,-0.01 -11.64,0 -1.81,0 -2.63,0.83 -2.63,2.63 -0.01,2.55 0,5.09 0,7.64 0,2.05 -0.01,4.1 0,6.15 0.01,1.55 0.88,2.48 2.33,2.49 z m -0.01,-16.56 c 1.63,0 10.6,-0.01 12.28,-0.01 0,1.98 0,12.25 0,14.27 -1.63,0 -10.68,0.05 -12.28,0.05 -0.01,-2.07 0,-12.31 0,-14.31 z"
   id="path2"
   style="fill:#2c3e50;fill-opacity:1" />
	<path
   d="m 134.5,147.31 c 4.08,0.01 8.16,0.01 12.23,0 1.41,0 2.3,-0.91 2.3,-2.33 0.01,-2.37 0,-4.74 0,-7.12 0,-2.27 0,-4.55 0,-6.82 0,-1.85 -0.76,-2.63 -2.59,-2.64 -3.88,-0.01 -7.76,-0.01 -11.64,0 -1.81,0 -2.63,0.83 -2.63,2.63 -0.01,2.55 0,5.09 0,7.64 0,2.05 -0.01,4.1 0,6.15 0.01,1.55 0.88,2.48 2.33,2.49 z m -0.01,-16.56 c 1.63,0 10.6,-0.01 12.28,-0.01 0,1.98 0,12.25 0,14.27 -1.63,0 -10.68,0.05 -12.28,0.05 -0.01,-2.07 0,-12.31 0,-14.31 z"
   id="path3"
   style="fill:#2c3e50;fill-opacity:1" />
	<path
   d="m 155.58,147.31 c 4.08,0.01 8.16,0.01 12.23,0 1.41,0 2.3,-0.91 2.3,-2.33 0.01,-2.37 0,-4.74 0,-7.12 0,-2.27 0,-4.55 0,-6.82 0,-1.85 -0.76,-2.63 -2.59,-2.64 -3.88,-0.01 -7.76,-0.01 -11.64,0 -1.81,0 -2.63,0.83 -2.63,2.63 -0.01,2.55 0,5.09 0,7.64 0,2.05 -0.01,4.1 0,6.15 0.01,1.55 0.88,2.48 2.33,2.49 z m -0.01,-16.56 c 1.63,0 10.6,-0.01 12.28,-0.01 0,1.98 0,12.25 0,14.27 -1.63,0 -10.68,0.05 -12.28,0.05 -0.01,-2.07 0,-12.31 0,-14.31 z"
   id="path4"
   style="fill:#2c3e50;fill-opacity:1" />
	<path
   d="m 112.71,168.61 c 4.08,0.01 8.16,0.01 12.23,0 1.41,0 2.3,-0.91 2.3,-2.33 0.01,-2.37 0,-4.74 0,-7.12 0,-2.27 0,-4.55 0,-6.82 0,-1.85 -0.76,-2.63 -2.59,-2.64 -3.88,-0.01 -7.76,-0.01 -11.64,0 -1.81,0 -2.63,0.83 -2.63,2.63 -0.01,2.55 0,5.09 0,7.64 0,2.05 -0.01,4.1 0,6.15 0.01,1.55 0.88,2.48 2.33,2.49 z m -0.01,-16.56 c 1.63,0 10.6,-0.01 12.28,-0.01 0,1.98 0,12.25 0,14.27 -1.63,0 -10.68,0.05 -12.28,0.05 -0.01,-2.07 0,-12.31 0,-14.31 z"
   id="path5"
   style="fill:#2c3e50;fill-opacity:1" />
	<path
   d="m 155.58,168.61 c 4.08,0.01 8.16,0.01 12.23,0 1.41,0 2.3,-0.91 2.3,-2.33 0.01,-2.37 0,-4.74 0,-7.12 0,-2.27 0,-4.55 0,-6.82 0,-1.85 -0.76,-2.63 -2.59,-2.64 -3.88,-0.01 -7.76,-0.01 -11.64,0 -1.81,0 -2.63,0.83 -2.63,2.63 -0.01,2.55 0,5.09 0,7.64 0,2.05 -0.01,4.1 0,6.15 0.01,1.55 0.88,2.48 2.33,2.49 z m -0.01,-16.56 c 1.63,0 10.6,-0.01 12.28,-0.01 0,1.98 0,12.25 0,14.27 -1.63,0 -10.68,0.05 -12.28,0.05 -0.01,-2.07 0,-12.31 0,-14.31 z"
   id="path6"
   style="fill:#2c3e50;fill-opacity:1" />
	<path
   d="m 141.73,75.4 c -36.58,0 -66.33,29.76 -66.33,66.33 0,36.57 29.76,66.33 66.33,66.33 36.57,0 66.33,-29.76 66.33,-66.33 0,-36.57 -29.75,-66.33 -66.33,-66.33 z m 0,122.66 c -31.06,0 -56.33,-25.27 -56.33,-56.33 0,-31.06 25.27,-56.33 56.33,-56.33 31.06,0 56.33,25.27 56.33,56.33 0,31.06 -25.27,56.33 -56.33,56.33 z"
   id="path7"
   style="fill:#2c3e50;fill-opacity:1" />
	<path
   d="m 122.16,115.82 c 0.21,0 0.38,-0.07 0.51,-0.21 0.13,-0.14 0.2,-0.34 0.2,-0.61 v -1.78 h 2.22 V 115 c 0,0.26 0.06,0.46 0.19,0.61 0.13,0.15 0.3,0.22 0.51,0.22 0.21,0 0.38,-0.07 0.51,-0.21 0.13,-0.14 0.2,-0.34 0.2,-0.61 v -4.46 c 0,-0.27 -0.07,-0.47 -0.19,-0.61 -0.13,-0.14 -0.3,-0.21 -0.51,-0.21 -0.21,0 -0.38,0.07 -0.5,0.22 -0.12,0.14 -0.19,0.34 -0.19,0.6 v 1.5 h -2.22 v -1.5 c 0,-0.27 -0.07,-0.47 -0.19,-0.61 -0.13,-0.14 -0.3,-0.21 -0.51,-0.21 -0.21,0 -0.38,0.07 -0.51,0.22 -0.12,0.14 -0.18,0.34 -0.18,0.6 V 115 c 0,0.26 0.06,0.46 0.19,0.61 0.09,0.14 0.26,0.21 0.47,0.21 z"
   id="path8"
   style="fill:#2c3e50;fill-opacity:1" />
	<path
   d="m 127.94,114.96 c 0.24,0.27 0.55,0.49 0.92,0.64 0.36,0.15 0.78,0.22 1.24,0.22 0.46,0 0.87,-0.07 1.23,-0.22 0.36,-0.15 0.67,-0.36 0.92,-0.63 0.25,-0.27 0.44,-0.6 0.56,-0.98 0.12,-0.37 0.18,-0.78 0.18,-1.23 0,-0.61 -0.11,-1.15 -0.34,-1.6 -0.23,-0.46 -0.57,-0.82 -1.01,-1.07 -0.44,-0.25 -0.97,-0.37 -1.57,-0.37 -0.45,0 -0.85,0.07 -1.2,0.21 -0.36,0.14 -0.66,0.35 -0.91,0.62 -0.25,0.27 -0.44,0.59 -0.57,0.97 -0.13,0.37 -0.19,0.79 -0.19,1.24 0,0.44 0.06,0.85 0.18,1.22 0.13,0.38 0.32,0.71 0.56,0.98 z m 0.79,-3.03 c 0.08,-0.24 0.18,-0.44 0.31,-0.59 0.13,-0.15 0.28,-0.27 0.46,-0.34 0.18,-0.08 0.37,-0.12 0.58,-0.12 0.3,0 0.56,0.07 0.79,0.21 0.23,0.14 0.4,0.35 0.53,0.63 0.13,0.29 0.19,0.63 0.19,1.03 0,0.43 -0.07,0.79 -0.21,1.08 -0.13,0.28 -0.31,0.49 -0.54,0.63 -0.23,0.14 -0.47,0.2 -0.75,0.2 -0.21,0 -0.41,-0.04 -0.58,-0.12 -0.17,-0.08 -0.33,-0.19 -0.47,-0.35 -0.14,-0.16 -0.24,-0.36 -0.32,-0.6 -0.08,-0.25 -0.12,-0.53 -0.12,-0.83 0.01,-0.31 0.05,-0.58 0.13,-0.83 z"
   id="path9"
   style="fill:#2c3e50;fill-opacity:1" />
	<path
   d="m 134.07,115.82 c 0.18,0 0.35,-0.06 0.49,-0.19 0.14,-0.13 0.21,-0.3 0.21,-0.52 0,-0.19 -0.07,-0.36 -0.21,-0.5 -0.28,-0.27 -0.73,-0.27 -1,0 -0.13,0.14 -0.2,0.3 -0.2,0.49 0,0.22 0.07,0.4 0.22,0.53 0.13,0.13 0.3,0.19 0.49,0.19 z"
   id="path10"
   style="fill:#2c3e50;fill-opacity:1" />
	<path
   d="m 136.49,115.82 c 0.21,0 0.38,-0.07 0.5,-0.21 0.13,-0.14 0.19,-0.34 0.19,-0.61 v -1.69 h 0.28 c 0.19,0 0.34,0.02 0.46,0.07 0.12,0.05 0.23,0.14 0.35,0.27 0.12,0.14 0.27,0.35 0.43,0.62 l 0.46,0.76 c 0.11,0.18 0.2,0.32 0.26,0.42 0.07,0.1 0.16,0.19 0.26,0.26 0.11,0.08 0.24,0.11 0.4,0.11 0.13,0 0.24,-0.03 0.34,-0.08 0.1,-0.05 0.18,-0.12 0.24,-0.22 0.06,-0.09 0.09,-0.19 0.09,-0.29 0,-0.06 -0.01,-0.17 -0.13,-0.44 -0.08,-0.19 -0.2,-0.42 -0.35,-0.66 -0.15,-0.24 -0.32,-0.47 -0.51,-0.69 -0.12,-0.14 -0.24,-0.25 -0.37,-0.35 0.37,-0.11 0.66,-0.28 0.87,-0.5 0.26,-0.28 0.39,-0.64 0.39,-1.1 0,-0.22 -0.04,-0.43 -0.11,-0.63 -0.08,-0.2 -0.19,-0.38 -0.34,-0.53 -0.15,-0.15 -0.32,-0.27 -0.51,-0.35 -0.16,-0.07 -0.34,-0.12 -0.53,-0.14 -0.19,-0.02 -0.41,-0.03 -0.67,-0.03 h -1.86 c -0.28,0 -0.49,0.07 -0.63,0.2 -0.13,0.13 -0.2,0.34 -0.2,0.62 V 115 c 0,0.26 0.06,0.46 0.18,0.6 0.11,0.15 0.29,0.22 0.51,0.22 z m 0.7,-4.89 h 0.93 c 0.47,0 0.66,0.04 0.74,0.08 0.12,0.05 0.21,0.12 0.28,0.22 0.07,0.1 0.1,0.21 0.1,0.35 0,0.17 -0.04,0.3 -0.12,0.39 -0.08,0.09 -0.2,0.16 -0.37,0.2 -0.18,0.04 -0.4,0.07 -0.66,0.07 h -0.9 z"
   id="path11"
   style="fill:#2c3e50;fill-opacity:1" />
	<path
   d="m 142.31,115.73 h 3.11 c 0.21,0 0.38,-0.05 0.49,-0.16 0.12,-0.11 0.18,-0.25 0.18,-0.42 0,-0.17 -0.06,-0.32 -0.18,-0.43 -0.11,-0.1 -0.28,-0.16 -0.49,-0.16 h -2.55 v -1.36 h 2.25 c 0.21,0 0.37,-0.05 0.48,-0.16 0.11,-0.1 0.17,-0.24 0.17,-0.4 0,-0.16 -0.06,-0.3 -0.17,-0.4 -0.11,-0.1 -0.27,-0.15 -0.48,-0.15 h -2.25 v -1.14 h 2.46 c 0.21,0 0.38,-0.05 0.49,-0.15 0.12,-0.1 0.17,-0.24 0.17,-0.41 0,-0.17 -0.06,-0.31 -0.17,-0.41 -0.11,-0.1 -0.28,-0.15 -0.49,-0.15 h -3.03 c -0.18,0 -0.33,0.03 -0.45,0.08 -0.13,0.06 -0.23,0.16 -0.29,0.29 -0.06,0.12 -0.08,0.27 -0.08,0.46 v 4.25 c 0,0.28 0.07,0.49 0.2,0.62 0.13,0.13 0.35,0.2 0.63,0.2 z"
   id="path12"
   style="fill:#2c3e50;fill-opacity:1" />
	<path
   d="m 147.5,115.82 c 0.18,0 0.35,-0.06 0.49,-0.19 0.14,-0.13 0.21,-0.3 0.21,-0.52 0,-0.19 -0.07,-0.36 -0.21,-0.5 -0.28,-0.27 -0.73,-0.27 -1,0 -0.13,0.14 -0.2,0.3 -0.2,0.49 0,0.22 0.07,0.4 0.22,0.53 0.14,0.13 0.3,0.19 0.49,0.19 z"
   id="path13"
   style="fill:#2c3e50;fill-opacity:1" />
	<path
   d="m 149.33,114.33 c 0.11,0.23 0.24,0.44 0.4,0.62 0.18,0.21 0.37,0.37 0.58,0.5 0.21,0.13 0.45,0.22 0.7,0.28 0.25,0.06 0.54,0.09 0.84,0.09 0.41,0 0.77,-0.07 1.08,-0.2 0.31,-0.13 0.57,-0.31 0.77,-0.52 0.2,-0.21 0.35,-0.43 0.44,-0.65 0.09,-0.22 0.14,-0.44 0.14,-0.63 0,-0.18 -0.06,-0.33 -0.18,-0.44 -0.12,-0.12 -0.27,-0.18 -0.44,-0.18 -0.2,0 -0.35,0.06 -0.45,0.19 -0.08,0.1 -0.15,0.24 -0.2,0.4 -0.11,0.29 -0.26,0.51 -0.47,0.66 -0.21,0.15 -0.46,0.22 -0.76,0.22 -0.28,0 -0.52,-0.07 -0.73,-0.2 -0.2,-0.13 -0.36,-0.33 -0.48,-0.6 -0.12,-0.28 -0.17,-0.63 -0.17,-1.05 0,-0.63 0.13,-1.11 0.39,-1.45 0.26,-0.33 0.59,-0.49 1.03,-0.49 0.27,0 0.5,0.06 0.68,0.19 0.19,0.13 0.35,0.32 0.49,0.58 0.1,0.18 0.19,0.31 0.27,0.39 0.1,0.09 0.24,0.14 0.42,0.14 0.17,0 0.31,-0.06 0.43,-0.19 0.11,-0.12 0.17,-0.27 0.17,-0.43 0,-0.26 -0.1,-0.54 -0.31,-0.83 -0.2,-0.28 -0.49,-0.53 -0.87,-0.72 -0.37,-0.19 -0.8,-0.29 -1.28,-0.29 -0.39,0 -0.76,0.07 -1.11,0.21 -0.35,0.14 -0.66,0.35 -0.91,0.61 -0.26,0.27 -0.46,0.59 -0.6,0.97 -0.14,0.37 -0.21,0.8 -0.21,1.27 0,0.29 0.03,0.56 0.08,0.82 0.07,0.26 0.15,0.51 0.26,0.73 z"
   id="path14"
   style="fill:#2c3e50;fill-opacity:1" />
	<path
   d="m 155.35,115.82 c 0.21,0 0.37,-0.07 0.47,-0.2 0.08,-0.11 0.18,-0.31 0.29,-0.6 l 0.24,-0.64 h 2.13 l 0.24,0.63 v 0 c 0.04,0.09 0.08,0.19 0.13,0.3 0.05,0.13 0.11,0.22 0.16,0.28 0.06,0.07 0.12,0.13 0.2,0.17 0.08,0.04 0.18,0.06 0.29,0.06 0.19,0 0.35,-0.07 0.48,-0.2 0.13,-0.13 0.2,-0.28 0.2,-0.45 0,-0.15 -0.06,-0.36 -0.18,-0.65 l -1.48,-3.65 c -0.07,-0.18 -0.13,-0.33 -0.17,-0.44 -0.05,-0.12 -0.11,-0.23 -0.18,-0.33 -0.08,-0.11 -0.18,-0.2 -0.3,-0.27 -0.25,-0.14 -0.67,-0.14 -0.92,0 -0.12,0.07 -0.23,0.16 -0.3,0.28 -0.07,0.1 -0.13,0.23 -0.2,0.39 l -1.6,4.05 c -0.06,0.15 -0.1,0.27 -0.13,0.35 -0.03,0.1 -0.04,0.19 -0.04,0.28 0,0.17 0.07,0.32 0.21,0.45 0.12,0.13 0.28,0.19 0.46,0.19 z m 2.04,-4.4 0.67,1.84 h -1.33 z"
   id="path15"
   style="fill:#2c3e50;fill-opacity:1" />
</g>
</svg>
