<?xml version="1.0" encoding="UTF-8" standalone="no"?>
<!-- Generator: Adobe Illustrator 26.3.1, SVG Export Plug-In . SVG Version: 6.00 Build 0)  -->

<svg
   version="1.1"
   id="Layer_1"
   x="0px"
   y="0px"
   viewBox="0 0 132.66001 132.66001"
   xml:space="preserve"
   sodipodi:docname="icon_4.svg"
   width="132.66"
   height="132.66"
   inkscape:version="1.3.2 (091e20e, 2023-11-25)"
   xmlns:inkscape="http://www.inkscape.org/namespaces/inkscape"
   xmlns:sodipodi="http://sodipodi.sourceforge.net/DTD/sodipodi-0.dtd"
   xmlns:xlink="http://www.w3.org/1999/xlink"
   xmlns="http://www.w3.org/2000/svg"
   xmlns:svg="http://www.w3.org/2000/svg"><defs
   id="defs13"><linearGradient
     id="linearGradient16"
     inkscape:collect="always"><stop
       style="stop-color:#353e50;stop-opacity:1;"
       offset="0"
       id="stop16" /><stop
       style="stop-color:#2c3e50;stop-opacity:0;"
       offset="1"
       id="stop17" /></linearGradient><linearGradient
     inkscape:collect="always"
     xlink:href="#linearGradient16"
     id="linearGradient17"
     x1="75.03"
     y1="141.73"
     x2="207.69"
     y2="141.73"
     gradientUnits="userSpaceOnUse" /></defs><sodipodi:namedview
   id="namedview13"
   pagecolor="#ffffff"
   bordercolor="#000000"
   borderopacity="0.25"
   inkscape:showpageshadow="2"
   inkscape:pageopacity="0.0"
   inkscape:pagecheckerboard="0"
   inkscape:deskcolor="#d1d1d1"
   inkscape:zoom="3.3224977"
   inkscape:cx="67.720136"
   inkscape:cy="66.064755"
   inkscape:window-width="1296"
   inkscape:window-height="750"
   inkscape:window-x="147"
   inkscape:window-y="139"
   inkscape:window-maximized="0"
   inkscape:current-layer="Layer_1" />
<style
   type="text/css"
   id="style1">
	.st0{fill:#FFFFFF;}
</style>
<g
   id="g13"
   transform="translate(-75.03,-75.4)">
	<g
   id="g6"
   style="fill:#2c3e50;fill-opacity:1">
		<path
   d="m 171.51,152.67 c 1.48,0 2.85,0 4.22,0 0.83,0 1.2,0.37 1.2,1.19 0,4.09 0,8.18 0,12.27 0,0.83 -0.4,1.24 -1.24,1.24 -10.31,0 -20.62,0 -30.93,0 -10.73,0 -21.45,0 -32.18,0 -1.81,0 -3.62,0 -5.43,0 -0.92,0 -1.37,-0.46 -1.37,-1.39 0,-4 0,-7.99 0,-11.99 0,-0.95 0.38,-1.33 1.32,-1.33 14.04,0 28.09,0 42.13,0 0.24,0 0.48,0 0.77,0 0,-5.29 0,-10.53 0,-15.84 -0.23,0 -0.43,0 -0.63,0 -7.48,0 -14.97,0 -22.45,-0.01 -0.41,0 -0.71,0.12 -1,0.39 -2.34,2.24 -4.7,4.47 -7.03,6.71 -0.18,0.17 -0.3,0.47 -0.31,0.72 -0.03,1.09 0,2.19 -0.02,3.28 -0.01,0.54 -0.28,0.94 -0.8,1.09 -0.48,0.14 -0.91,-0.04 -1.18,-0.45 -0.13,-0.2 -0.18,-0.49 -0.18,-0.74 -0.01,-1.04 0.02,-2.07 -0.01,-3.11 -0.01,-0.27 -0.12,-0.61 -0.31,-0.78 -2.42,-2.32 -4.85,-4.63 -7.31,-6.9 -0.56,-0.52 -0.86,-1.04 -0.85,-1.84 0.04,-3.92 0.04,-7.84 0.01,-11.76 -0.01,-1.57 1.29,-2.97 2.77,-2.9 1.09,0.05 2.19,-0.01 3.28,0.02 0.49,0.02 0.65,-0.11 0.65,-0.62 -0.03,-1.71 -0.01,-3.43 -0.01,-5.15 0,-0.97 0.38,-1.35 1.37,-1.35 0.98,0 1.96,0 2.94,0 0.98,0 1.42,0.43 1.42,1.4 0.01,1.68 0,3.35 0,5.03 0,0.2 0,0.4 0,0.68 0.79,0 1.5,0 2.21,0 4.84,0 9.69,0 14.53,0 6.82,0 13.65,-0.01 20.47,-0.01 3.64,0 7.28,0.07 10.91,-0.01 1.94,-0.05 3.21,1.55 3.04,3.09 -0.03,0.31 0,0.64 0,0.95 2.53,0.48 4.05,2.44 3.97,4.9 -0.05,1.54 -0.01,3.09 -0.01,4.64 0,2.41 -1.29,4.09 -3.63,4.66 -0.42,0.1 -0.33,0.34 -0.33,0.58 -0.01,2.58 0,5.16 0,7.75 0,1.64 0,3.28 0,4.92 0,0.19 0,0.39 0,0.67 z m -54.05,-10.45 c 0.15,-0.12 0.27,-0.2 0.38,-0.3 2.32,-2.21 4.65,-4.41 6.96,-6.62 0.45,-0.43 0.91,-0.63 1.55,-0.62 8.14,0.02 16.29,0.01 24.43,0.01 1.16,0 1.5,0.33 1.5,1.51 0,5.26 0,10.52 0,15.78 0,0.22 0,0.44 0,0.67 0.14,0.01 0.22,0.03 0.29,0.03 5.43,0 10.86,-0.01 16.29,-0.01 0.43,0 0.5,-0.18 0.49,-0.54 -0.01,-1.59 -0.01,-3.18 -0.01,-4.78 0,-7.85 0,-15.7 0,-23.55 0,-0.97 -0.12,-1.1 -1.1,-1.1 -9.2,0 -18.4,0 -27.6,0 -9.82,0 -19.64,-0.01 -29.46,-0.01 -0.88,0 -1.09,0.18 -1.09,0.96 0,3.71 -0.01,7.43 0.01,11.14 0,0.26 0.15,0.58 0.34,0.76 1.12,1.12 2.27,2.21 3.42,3.3 1.18,1.12 2.38,2.23 3.6,3.37 z m 57.31,12.64 c -22.29,0 -44.52,0 -66.82,0 0,0.25 0,0.45 0,0.65 0,2.98 0,5.96 0,8.94 0,0.76 0,0.76 0.78,0.76 13.1,0 26.21,0.01 39.31,0 8.71,-0.01 17.42,-0.04 26.12,-0.07 0.2,0 0.4,-0.02 0.6,-0.03 0.01,-3.45 0.01,-6.82 0.01,-10.25 z m -3.24,-28.02 c 0,3.27 0,6.48 0,9.7 1.05,-0.13 1.79,-1.23 1.79,-2.39 0,-1.64 0.01,-3.28 -0.01,-4.91 -0.01,-0.38 -0.08,-0.79 -0.24,-1.14 -0.29,-0.66 -0.76,-1.14 -1.54,-1.26 z m -53.45,-11.17 c -0.46,0 -0.88,0 -1.33,0 0,1.29 0,2.52 0,3.76 0,1.19 0,1.19 1.2,1.09 0.03,0 0.06,-0.03 0.13,-0.06 0,-1.57 0,-3.16 0,-4.79 z"
   id="path1"
   style="fill:#2c3e50;fill-opacity:1" />
		<path
   class="st0"
   d="m 118.08,115.67 c 0,1.63 0,3.22 0,4.79 -0.06,0.03 -0.1,0.06 -0.13,0.06 -1.2,0.1 -1.2,0.1 -1.2,-1.09 0,-1.24 0,-2.47 0,-3.76 0.45,0 0.87,0 1.33,0 z"
   id="path2"
   style="fill:#2c3e50;fill-opacity:1" />
		<path
   d="m 136.89,129.71 c -4.14,0 -8.29,0 -12.43,0 -0.78,0 -1.16,-0.4 -1.14,-1.13 0.02,-0.65 0.48,-1.03 1.27,-1.03 3.11,0 6.22,0 9.33,0 5.1,0 10.21,0 15.31,0 0.81,0 1.27,0.35 1.36,0.96 0.08,0.59 -0.44,1.22 -1.15,1.21 -3.58,-0.03 -7.16,-0.02 -10.74,-0.02 -0.61,0.01 -1.21,0.01 -1.81,0.01 z"
   id="path3"
   style="fill:#2c3e50;fill-opacity:1" />
		<path
   d="m 160.8,140.79 c 0.66,0 1.32,0.04 1.98,-0.01 1.25,-0.09 2.73,1 2.75,2.53 0.02,1.56 0.03,3.13 -0.03,4.69 -0.04,1.16 -1.29,2.27 -2.46,2.28 -1.51,0.01 -3.02,0.01 -4.52,0 -1.25,-0.01 -2.49,-1.29 -2.51,-2.58 -0.02,-1.45 -0.02,-2.9 0,-4.35 0.02,-1.34 1.3,-2.56 2.63,-2.56 0.73,0 1.44,0 2.16,0 z m -0.04,2.15 c -0.62,0 -1.24,0.01 -1.86,0 -0.5,-0.01 -0.73,0.26 -0.73,0.72 -0.01,1.26 -0.01,2.52 0,3.78 0,0.43 0.22,0.7 0.69,0.7 1.26,0 2.52,0 3.78,0 0.47,0 0.73,-0.22 0.73,-0.72 -0.01,-1.24 -0.01,-2.48 0,-3.73 0.01,-0.52 -0.23,-0.76 -0.74,-0.76 -0.63,0.01 -1.25,0.01 -1.87,0.01 z"
   id="path4"
   style="fill:#2c3e50;fill-opacity:1" />
		<path
   d="m 160.75,136.07 c -2.47,-0.01 -4.36,-1.9 -4.37,-4.38 -0.01,-2.4 1.91,-4.57 4.83,-4.36 1.96,0.14 4.12,1.95 3.96,4.65 -0.12,2.14 -1.98,4.15 -4.42,4.09 z m 0.01,-2.18 c 1.25,0 2.24,-0.95 2.27,-2.17 0.03,-1.17 -1.02,-2.24 -2.2,-2.24 -1.28,0 -2.25,0.95 -2.25,2.21 -0.01,1.26 0.92,2.2 2.18,2.2 z"
   id="path5"
   style="fill:#2c3e50;fill-opacity:1" />
		<path
   d="m 141.34,161.04 c -9.29,0 -18.58,0 -27.88,0 -0.83,0 -1.25,-0.37 -1.23,-1.1 0.01,-0.58 0.4,-0.99 1.02,-1.05 0.13,-0.01 0.26,0 0.4,0 18.49,0 36.98,0 55.47,0.01 0.36,0 0.77,0.14 1.08,0.33 0.39,0.25 0.49,0.68 0.29,1.14 -0.19,0.45 -0.5,0.67 -0.99,0.67 -4.01,0 -8.03,0 -12.04,0 -5.38,0 -10.75,0 -16.12,0 z"
   id="path6"
   style="fill:#2c3e50;fill-opacity:1" />
	</g>
	<g
   id="g8">
		<path
   class="st0"
   d="m 160.76,199.93 c 0,0 -10.44,2.48 -10.17,-10.79 0.27,-13.27 -12.48,-4.36 -27.17,-5.74 -19.47,-1.83 -19.59,-19.18 -17.65,-27.95 0.65,-2.95 3.25,-5.05 6.27,-5.05 l 24.99,0.05 c 2.35,0 4.36,1.72 4.69,4.04 0.83,5.84 3.99,12.31 12.46,10.71 11.89,-2.25 22.74,-3.12 21.96,8.37 -0.66,9.63 10.21,9.83 10.21,9.83"
   id="path7"
   style="fill:#ffffff;fill-opacity:1" />
		<path
   d="m 158.86,201.11 c -1.59,0 -3.8,-0.34 -5.7,-1.87 -2.47,-1.99 -3.67,-5.4 -3.57,-10.13 0.05,-2.67 -0.44,-4.41 -1.5,-5.34 -1.86,-1.63 -5.67,-1.04 -10.49,-0.3 -4.26,0.66 -9.09,1.4 -14.27,0.92 -6.93,-0.65 -12.11,-3.27 -15.4,-7.78 -5.6,-7.69 -3.81,-18.31 -3.13,-21.38 0.76,-3.43 3.74,-5.83 7.25,-5.83 l 24.99,0.05 c 2.84,0 5.28,2.11 5.68,4.9 0.33,2.33 1.34,6.56 4.34,8.71 1.81,1.3 4.16,1.69 6.95,1.16 9.5,-1.8 16.62,-2.29 20.46,1.12 2.03,1.8 2.93,4.6 2.68,8.3 -0.16,2.36 0.43,4.29 1.75,5.74 2.67,2.91 7.43,3.02 7.47,3.02 l -0.04,2 c -0.23,0 -5.67,-0.14 -8.91,-3.67 -1.71,-1.86 -2.47,-4.29 -2.27,-7.22 0.21,-3.1 -0.45,-5.28 -2.01,-6.67 -3.43,-3.04 -11.04,-2.11 -18.76,-0.65 -3.35,0.63 -6.21,0.13 -8.48,-1.5 -3.43,-2.46 -4.7,-6.82 -5.16,-10.05 -0.26,-1.82 -1.85,-3.19 -3.7,-3.19 l -24.99,-0.05 c -2.56,0 -4.73,1.75 -5.29,4.26 -0.64,2.86 -2.31,12.76 2.8,19.77 2.93,4.03 7.63,6.37 13.97,6.97 4.93,0.46 9.63,-0.26 13.78,-0.9 5.34,-0.82 9.56,-1.47 12.11,0.77 1.54,1.34 2.25,3.6 2.18,6.89 -0.08,4.08 0.87,6.95 2.83,8.53 2.57,2.08 6.07,1.27 6.11,1.26 l 0.46,1.95 c -0.09,0.02 -0.93,0.21 -2.14,0.21 z"
   id="path8"
   style="fill:#2c3e50;fill-opacity:1" />
	</g>
	<path
   d="m 141.36,208.06 c -36.58,0 -66.33,-29.76 -66.33,-66.33 0,-36.57 29.76,-66.33 66.33,-66.33 36.57,0 66.33,29.76 66.33,66.33 0,36.57 -29.76,66.33 -66.33,66.33 z m 0,-122.66 c -31.06,0 -56.33,25.27 -56.33,56.33 0,31.06 25.27,56.33 56.33,56.33 31.06,0 56.33,-25.27 56.33,-56.33 0,-31.06 -25.27,-56.33 -56.33,-56.33 z"
   id="path9"
   style="stroke:url(#linearGradient17);fill:#2c3e50;fill-opacity:1" />
	<g
   id="g12"
   style="fill:#2c3e50;fill-opacity:1">
		<path
   d="m 117.28,151.85 -0.93,-0.37 c 0.19,-0.48 0.39,-0.95 0.62,-1.41 l 0.9,0.44 c -0.21,0.44 -0.41,0.89 -0.59,1.34 z"
   id="path10"
   style="fill:#2c3e50;fill-opacity:1" />
		<path
   d="m 164.15,192.35 c -0.51,-0.86 -0.97,-1.83 -1.35,-2.89 l 0.94,-0.34 c 0.36,0.99 0.79,1.91 1.27,2.72 z m -2.21,-5.93 c -0.21,-0.99 -0.37,-2.03 -0.53,-3.08 l 0.99,-0.15 c 0.16,1.04 0.31,2.06 0.52,3.02 z m -1.01,-6.13 c -0.22,-1.18 -0.45,-2.11 -0.72,-2.94 l 0.95,-0.31 c 0.29,0.88 0.53,1.85 0.75,3.07 z m -27.82,-5.09 -0.09,-1 h 0.1 c 0.48,0 0.98,-0.01 1.47,-0.04 0.48,-0.03 0.96,-0.08 1.45,-0.14 l 0.14,0.99 c -0.51,0.07 -1.02,0.12 -1.53,0.15 -0.51,0.02 -1.02,0.04 -1.54,0.04 z m -3.24,-0.2 c -1.07,-0.14 -2.12,-0.34 -3.11,-0.61 l 0.26,-0.96 c 0.94,0.25 1.94,0.45 2.97,0.58 z m 29.07,-0.3 c -0.57,-0.83 -1.25,-1.47 -2.07,-1.97 l 0.52,-0.85 c 0.93,0.57 1.73,1.33 2.38,2.26 z m -19.67,-0.33 -0.25,-0.97 c 0.93,-0.24 1.86,-0.52 2.95,-0.85 l 0.29,0.96 c -1.1,0.33 -2.04,0.61 -2.99,0.86 z m -15.49,-1.05 c -0.99,-0.46 -1.92,-1 -2.76,-1.6 l 0.59,-0.81 c 0.78,0.57 1.66,1.07 2.59,1.5 z m 21.44,-0.72 -0.28,-0.96 c 1.17,-0.34 2.14,-0.58 3.05,-0.76 l 0.2,0.98 c -0.88,0.18 -1.82,0.41 -2.97,0.74 z m 8.93,-0.89 c -0.95,-0.19 -1.93,-0.26 -2.97,-0.22 l -0.04,-1 c 1.1,-0.04 2.18,0.04 3.2,0.24 z m -35.5,-2.15 c -0.65,-0.74 -1.22,-1.56 -1.7,-2.43 l -0.11,-0.21 0.88,-0.47 0.1,0.19 c 0.45,0.81 0.98,1.57 1.58,2.26 z m -3.02,-5.6 c -0.29,-1 -0.5,-2.05 -0.61,-3.13 l 1,-0.1 c 0.1,1.01 0.3,2 0.57,2.95 z m 0.33,-6.23 -1,-0.07 c 0.07,-1.04 0.22,-2.1 0.46,-3.14 l 0.98,0.22 c -0.23,0.99 -0.37,1.99 -0.44,2.99 z"
   id="path11"
   style="fill:#2c3e50;fill-opacity:1" />
		<path
   d="m 167.4,195.92 c -0.43,-0.3 -0.84,-0.63 -1.22,-1 l 0.69,-0.72 c 0.35,0.33 0.72,0.63 1.1,0.9 z"
   id="path12"
   style="fill:#2c3e50;fill-opacity:1" />
	</g>
</g>
</svg>
