<?xml version="1.0" encoding="UTF-8" standalone="no"?>
<!-- Generator: Adobe Illustrator 26.3.1, SVG Export Plug-In . SVG Version: 6.00 Build 0)  -->

<svg
   version="1.1"
   id="Layer_1"
   x="0px"
   y="0px"
   viewBox="0 0 132.66001 132.66001"
   xml:space="preserve"
   sodipodi:docname="icon_2.svg"
   width="132.66"
   height="132.66"
   inkscape:version="1.3.2 (091e20e, 2023-11-25)"
   xmlns:inkscape="http://www.inkscape.org/namespaces/inkscape"
   xmlns:sodipodi="http://sodipodi.sourceforge.net/DTD/sodipodi-0.dtd"
   xmlns="http://www.w3.org/2000/svg"
   xmlns:svg="http://www.w3.org/2000/svg"><defs
   id="defs2" /><sodipodi:namedview
   id="namedview2"
   pagecolor="#ffffff"
   bordercolor="#000000"
   borderopacity="0.25"
   inkscape:showpageshadow="2"
   inkscape:pageopacity="0.0"
   inkscape:pagecheckerboard="0"
   inkscape:deskcolor="#d1d1d1"
   inkscape:zoom="0.83256899"
   inkscape:cx="66.060592"
   inkscape:cy="65.460041"
   inkscape:window-width="1312"
   inkscape:window-height="700"
   inkscape:window-x="0"
   inkscape:window-y="38"
   inkscape:window-maximized="0"
   inkscape:current-layer="Layer_1" />
<path
   d="m 106.91,66.33 v 0 c 0,-0.94 -0.76,-1.69 -1.69,-1.69 H 99.99 C 99.13,64.64 98.39,64 98.31,63.15 97.67,56.68 95.1,50.77 91.19,46 90.64,45.33 90.71,44.36 91.32,43.75 l 3.71,-3.71 c 0.66,-0.66 0.66,-1.73 0,-2.4 v 0 c -0.66,-0.66 -1.73,-0.66 -2.4,0 l -3.71,3.71 c -0.61,0.61 -1.58,0.67 -2.25,0.13 C 81.9,37.57 75.99,35 69.52,34.36 68.67,34.28 68.03,33.54 68.03,32.68 v -5.23 c 0,-0.94 -0.76,-1.69 -1.69,-1.69 v 0 c -0.94,0 -1.69,0.76 -1.69,1.69 v 5.23 c 0,0.86 -0.64,1.6 -1.49,1.68 -6.47,0.64 -12.38,3.21 -17.15,7.12 -0.67,0.55 -1.64,0.48 -2.25,-0.13 l -3.71,-3.71 c -0.66,-0.66 -1.73,-0.66 -2.4,0 v 0 c -0.66,0.66 -0.66,1.73 0,2.4 l 3.71,3.71 c 0.61,0.61 0.67,1.58 0.13,2.25 -3.91,4.77 -6.48,10.68 -7.12,17.15 -0.08,0.85 -0.82,1.49 -1.68,1.49 h -5.23 c -0.94,0 -1.69,0.76 -1.69,1.69 v 0 c 0,0.94 0.76,1.69 1.69,1.69 h 5.23 c 0.86,0 1.6,0.64 1.68,1.49 0.64,6.47 3.21,12.38 7.12,17.15 0.55,0.67 0.48,1.64 -0.13,2.25 l -3.71,3.71 c -0.66,0.66 -0.66,1.73 0,2.4 v 0 c 0.66,0.66 1.73,0.66 2.4,0 l 3.71,-3.71 c 0.61,-0.61 1.58,-0.67 2.25,-0.13 4.77,3.91 10.68,6.48 17.15,7.12 0.85,0.08 1.49,0.82 1.49,1.68 v 5.23 c 0,0.94 0.76,1.69 1.69,1.69 v 0 c 0.94,0 1.69,-0.76 1.69,-1.69 v -5.23 c 0,-0.86 0.64,-1.6 1.49,-1.68 6.47,-0.64 12.38,-3.21 17.15,-7.12 0.67,-0.55 1.64,-0.48 2.25,0.13 l 3.71,3.71 c 0.66,0.66 1.73,0.66 2.4,0 v 0 c 0.66,-0.66 0.66,-1.73 0,-2.4 l -3.71,-3.71 c -0.61,-0.61 -0.67,-1.58 -0.13,-2.25 3.91,-4.77 6.48,-10.68 7.12,-17.15 0.08,-0.85 0.82,-1.49 1.68,-1.49 h 5.23 c 0.93,0 1.69,-0.76 1.69,-1.69 z M 93.16,64.63 H 74.52 c -1.51,0 -2.26,-1.82 -1.2,-2.89 L 86.49,48.57 c 0.72,-0.72 1.92,-0.65 2.54,0.16 3.08,3.97 5.15,8.76 5.81,13.99 0.13,1.01 -0.66,1.91 -1.68,1.91 z M 84.09,46.17 70.92,59.34 c -1.07,1.07 -2.89,0.31 -2.89,-1.2 V 39.5 c 0,-1.02 0.9,-1.82 1.92,-1.69 5.23,0.66 10.02,2.73 13.99,5.81 0.8,0.64 0.87,1.83 0.15,2.55 z M 64.64,39.51 v 18.64 c 0,1.51 -1.82,2.26 -2.89,1.2 L 48.58,46.18 c -0.72,-0.72 -0.65,-1.92 0.16,-2.54 3.97,-3.08 8.76,-5.15 13.99,-5.81 1.01,-0.14 1.91,0.65 1.91,1.68 z m -18.46,9.06 13.17,13.17 c 1.07,1.07 0.31,2.89 -1.2,2.89 H 39.51 c -1.02,0 -1.82,-0.9 -1.69,-1.92 0.66,-5.23 2.73,-10.02 5.81,-13.99 0.63,-0.8 1.83,-0.87 2.55,-0.15 z m -6.67,19.45 h 18.64 c 1.51,0 2.26,1.82 1.2,2.89 L 46.18,84.08 c -0.72,0.72 -1.92,0.65 -2.54,-0.16 -3.08,-3.97 -5.15,-8.76 -5.81,-13.99 -0.13,-1 0.66,-1.91 1.68,-1.91 z m 9.07,18.46 13.17,-13.17 c 1.07,-1.07 2.89,-0.31 2.89,1.2 v 18.64 c 0,1.02 -0.9,1.82 -1.92,1.69 C 57.49,94.18 52.7,92.11 48.73,89.03 47.93,88.4 47.85,87.2 48.58,86.48 Z m 19.45,6.67 V 74.51 c 0,-1.51 1.82,-2.26 2.89,-1.2 l 13.17,13.17 c 0.72,0.72 0.65,1.92 -0.16,2.54 -3.97,3.08 -8.76,5.15 -13.99,5.81 -1.01,0.13 -1.91,-0.66 -1.91,-1.68 z M 86.49,84.09 73.32,70.92 c -1.07,-1.07 -0.31,-2.89 1.2,-2.89 h 18.64 c 1.02,0 1.82,0.9 1.69,1.92 -0.66,5.23 -2.73,10.02 -5.81,13.99 -0.63,0.79 -1.83,0.87 -2.55,0.15 z"
   id="path1"
   style="fill:#2c3e50;fill-opacity:1" />
<path
   d="M 66.33,132.66 C 29.75,132.66 0,102.9 0,66.33 0,29.76 29.76,0 66.33,0 c 36.58,0 66.33,29.76 66.33,66.33 0,36.57 -29.75,66.33 -66.33,66.33 z M 66.33,10 C 35.27,10 10,35.27 10,66.33 c 0,31.06 25.27,56.33 56.33,56.33 31.06,0 56.33,-25.27 56.33,-56.33 C 122.66,35.27 97.4,10 66.33,10 Z"
   id="path2"
   style="fill:#2c3e50;fill-opacity:1" />
</svg>
