<?xml version="1.0" encoding="UTF-8" standalone="no"?>
<!-- Generator: Adobe Illustrator 26.3.1, SVG Export Plug-In . SVG Version: 6.00 Build 0)  -->

<svg
   version="1.1"
   id="Layer_1"
   x="0px"
   y="0px"
   viewBox="0 0 132.66001 132.66001"
   xml:space="preserve"
   sodipodi:docname="icon_3.svg"
   width="132.66"
   height="132.66"
   inkscape:version="1.3.2 (091e20e, 2023-11-25)"
   xmlns:inkscape="http://www.inkscape.org/namespaces/inkscape"
   xmlns:sodipodi="http://sodipodi.sourceforge.net/DTD/sodipodi-0.dtd"
   xmlns="http://www.w3.org/2000/svg"
   xmlns:svg="http://www.w3.org/2000/svg"><defs
   id="defs2" /><sodipodi:namedview
   id="namedview2"
   pagecolor="#ffffff"
   bordercolor="#000000"
   borderopacity="0.25"
   inkscape:showpageshadow="2"
   inkscape:pageopacity="0.0"
   inkscape:pagecheckerboard="0"
   inkscape:deskcolor="#d1d1d1"
   inkscape:zoom="0.83256899"
   inkscape:cx="67.261693"
   inkscape:cy="66.661142"
   inkscape:window-width="1312"
   inkscape:window-height="828"
   inkscape:window-x="0"
   inkscape:window-y="38"
   inkscape:window-maximized="0"
   inkscape:current-layer="Layer_1" />
<g
   id="g2"
   transform="translate(-74.64,-74.94)"
   style="fill:#2c3e50;fill-opacity:1">
	<path
   d="m 141.06,136.74 c -8.69,0 -25.12,1.34 -25.12,5.88 0,6.11 16.43,7.72 25.12,7.72 8.69,0 25.12,-1.61 25.12,-7.72 0.01,-3.81 -16.43,-5.88 -25.12,-5.88 z m 0,10.43 c -14.26,0 -21.95,-3.22 -21.95,-4.54 0,-1.32 7.69,-4.54 21.95,-4.54 14.26,0 21.95,3.22 21.95,4.54 0,1.32 -7.69,4.54 -21.95,4.54 z"
   id="path1"
   style="fill:#2c3e50;fill-opacity:1" />
	<path
   d="m 140.97,74.94 c -36.58,0 -66.33,29.76 -66.33,66.33 0,36.57 29.76,66.33 66.33,66.33 36.57,0 66.33,-29.76 66.33,-66.33 0,-36.57 -29.76,-66.33 -66.33,-66.33 z m 0,10 c 31.06,0 56.33,25.27 56.33,56.33 0,0.34 -0.02,0.68 -0.03,1.02 H 181.2 c -1.32,-6.51 -5.36,-13.35 -11.36,-19 -8.07,-7.6 -18.19,-11.78 -28.48,-11.78 -10.29,0 -20.4,4.18 -28.48,11.78 -6,5.65 -10.04,12.48 -11.36,19 H 84.66 c -0.01,-0.34 -0.03,-0.68 -0.03,-1.02 0.01,-31.06 25.28,-56.33 56.34,-56.33 z M 107.79,160.3 H 87.95 c -1.76,-4.89 -2.86,-10.1 -3.2,-15.51 h 16.4 c -0.06,0.68 -0.11,1.35 -0.11,2.01 0.01,5.59 2.29,10.1 6.75,13.5 z m 33.57,5.1 c -17.25,0 -37.81,-3.23 -37.81,-18.6 0,-14.76 17.45,-32.79 37.81,-32.79 20.36,0 37.81,18.03 37.81,32.79 0,15.38 -20.56,18.6 -37.81,18.6 z m -1.64,2.49 v 16.05 h -34.5 l 7.53,-20.71 c 6.43,2.95 15.47,4.52 26.97,4.66 z m 0,18.55 v 11.13 c -12.11,-0.27 -23.3,-4.36 -32.38,-11.13 z m 2.5,0 h 32.38 c -9.08,6.78 -20.27,10.87 -32.38,11.13 z m 0,-2.5 V 167.9 c 11.31,-0.07 20.28,-1.51 26.79,-4.25 l 7.37,20.29 z m 39.45,-37.13 c 0,-0.66 -0.04,-1.34 -0.11,-2.01 h 15.62 c -0.34,5.41 -1.43,10.62 -3.2,15.51 h -19.05 c 4.46,-3.41 6.74,-7.92 6.74,-13.5 z M 88.92,162.8 h 21.32 l -7.27,20.01 C 96.93,177.29 92.11,170.47 88.92,162.8 Z m 89.8,20.24 -7.36,-20.24 h 21.65 c -3.23,7.78 -8.14,14.68 -14.29,20.24 z"
   id="path2"
   style="fill:#2c3e50;fill-opacity:1" />
</g>
</svg>
